<svg width="20" height="21" viewBox="0 0 20 21" fill="none" xmlns="http://www.w3.org/2000/svg">
<path d="M14.19 0.330078H5.81C2.17 0.330078 0 2.51008 0 6.15008V14.5201C0 18.1601 2.17 20.3301 5.81 20.3301H14.18C17.82 20.3301 19.99 18.1601 19.99 14.5201V6.15008C20 2.51008 17.83 0.330078 14.19 0.330078ZM9.57 15.1201C9.57 15.4201 9.42 15.6901 9.16 15.8501C9.02 15.9401 8.87 15.9801 8.71 15.9801C8.58 15.9801 8.45 15.9501 8.32 15.8901L4.82 14.1401C4.32 13.8801 4 13.3701 4 12.8001V9.49008C4 9.19008 4.15 8.92008 4.41 8.76008C4.67 8.60008 4.98 8.59008 5.25 8.72008L8.75 10.4701C9.26 10.7301 9.58 11.2401 9.58 11.8101V15.1201H9.57ZM9.36 9.77008L5.6 7.74008C5.33 7.59008 5.16 7.30008 5.16 6.97008C5.16 6.65008 5.33 6.35008 5.6 6.20008L9.36 4.17008C9.76 3.96008 10.23 3.96008 10.63 4.17008L14.39 6.20008C14.66 6.35008 14.83 6.64008 14.83 6.97008C14.83 7.30008 14.66 7.59008 14.39 7.74008L10.63 9.77008C10.43 9.88008 10.21 9.93008 9.99 9.93008C9.77 9.93008 9.56 9.88008 9.36 9.77008ZM16 12.8001C16 13.3701 15.68 13.8901 15.17 14.1401L11.67 15.8901C11.55 15.9501 11.42 15.9801 11.28 15.9801C11.12 15.9801 10.97 15.9401 10.83 15.8501C10.57 15.6901 10.42 15.4201 10.42 15.1201V11.8101C10.42 11.2401 10.74 10.7201 11.25 10.4701L14.75 8.72008C15.02 8.59008 15.33 8.60008 15.59 8.76008C15.85 8.92008 16 9.19008 16 9.49008V12.8001Z" fill="#FC7233"/>
</svg>
