<svg width="20" height="20" viewBox="0 0 20 20" fill="none" xmlns="http://www.w3.org/2000/svg">
<path opacity="0.4" d="M12.9013 2.5H6.26797C3.39297 2.5 1.66797 4.21667 1.66797 7.1V13.725C1.66797 16.6167 3.39297 18.3333 6.26797 18.3333H12.893C15.7763 18.3333 17.493 16.6167 17.493 13.7333V7.1C17.5013 4.21667 15.7763 2.5 12.9013 2.5Z" fill="#292D32"/>
<path d="M17.5143 2.48324C16.0226 0.983238 14.5643 0.949904 13.031 2.48324L12.0893 3.41657C12.006 3.4999 11.981 3.61657 12.0143 3.7249C12.5976 5.76657 14.231 7.3999 16.2726 7.98324C16.2976 7.99157 16.3393 7.99157 16.3643 7.99157C16.4476 7.99157 16.531 7.95824 16.5893 7.8999L17.5143 6.96657C18.2726 6.20824 18.6476 5.48324 18.6476 4.74157C18.6476 3.99157 18.2726 3.2499 17.5143 2.48324Z" fill="#292D32"/>
<path d="M14.8855 8.68353C14.6605 8.5752 14.4439 8.46686 14.2439 8.34186C14.0772 8.24186 13.9105 8.13353 13.7522 8.01686C13.6189 7.93353 13.4689 7.80853 13.3189 7.68353C13.3022 7.6752 13.2522 7.63353 13.1855 7.56686C12.9272 7.35853 12.6522 7.0752 12.3939 6.76686C12.3772 6.7502 12.3272 6.7002 12.2855 6.6252C12.2022 6.53353 12.0772 6.3752 11.9689 6.2002C11.8772 6.08353 11.7689 5.91686 11.6689 5.74186C11.5439 5.53353 11.4355 5.3252 11.3355 5.10853C11.2272 4.8752 11.1439 4.65853 11.0689 4.4502L6.58553 8.93353C6.29387 9.2252 6.01053 9.7752 5.9522 10.1835L5.59387 12.6669C5.51887 13.1919 5.66053 13.6835 5.98553 14.0085C6.26053 14.2835 6.63553 14.4252 7.0522 14.4252C7.14387 14.4252 7.23553 14.4169 7.3272 14.4085L9.8022 14.0585C10.2105 14.0002 10.7605 13.7252 11.0522 13.4252L15.5355 8.94186C15.3272 8.87519 15.1189 8.78353 14.8855 8.68353Z" fill="#292D32"/>
</svg>
