<svg width="60" height="60" viewBox="0 0 60 60" fill="none" xmlns="http://www.w3.org/2000/svg">
<path d="M37.125 9.875V19.375H33.375V9.875C33.375 9.2 32.775 8.875 32.375 8.875C32.25 8.875 32.125 8.9 32 8.95L12.175 16.425C10.85 16.925 10 18.175 10 19.6V21.275C7.725 22.975 6.25 25.7 6.25 28.775V19.6C6.25 16.625 8.075 13.975 10.85 12.925L30.7 5.425C31.25 5.225 31.825 5.125 32.375 5.125C34.875 5.125 37.125 7.15 37.125 9.875Z" fill="white"/>
<path d="M53.7497 36.25V38.75C53.7497 39.425 53.2247 39.975 52.5247 40H48.8747C47.5497 40 46.3497 39.025 46.2497 37.725C46.1747 36.95 46.4747 36.225 46.9747 35.725C47.4247 35.25 48.0497 35 48.7247 35H52.4997C53.2247 35.025 53.7497 35.575 53.7497 36.25Z" fill="white"/>
<path d="M48.7 32.375H51.25C52.625 32.375 53.75 31.25 53.75 29.875V28.775C53.75 23.6 49.525 19.375 44.35 19.375H15.65C13.525 19.375 11.575 20.075 10 21.275C7.725 22.975 6.25 25.7 6.25 28.775V45.6C6.25 50.775 10.475 55 15.65 55H44.35C49.525 55 53.75 50.775 53.75 45.6V45.125C53.75 43.75 52.625 42.625 51.25 42.625H49.075C46.675 42.625 44.375 41.15 43.75 38.825C43.225 36.925 43.85 35.1 45.1 33.875C46.025 32.925 47.3 32.375 48.7 32.375ZM35 31.875H17.5C16.475 31.875 15.625 31.025 15.625 30C15.625 28.975 16.475 28.125 17.5 28.125H35C36.025 28.125 36.875 28.975 36.875 30C36.875 31.025 36.025 31.875 35 31.875Z" fill="white"/>
</svg>
