<svg width="42" height="42" viewBox="0 0 42 42" fill="none" xmlns="http://www.w3.org/2000/svg">
<rect width="42" height="42" rx="14" fill="#101828"/>
<path d="M17.7539 14.5879H24.2415V26.2537H17.7539V14.5879Z" fill="#FF6610"/>
<path d="M18.1652 20.42C18.1652 18.0497 19.2773 15.9474 20.9867 14.587C19.7305 13.5977 18.1446 13 16.4146 13C12.3159 13 9 16.3183 9 20.42C9 24.5215 12.3159 27.84 16.4145 27.84C18.1445 27.84 19.7304 27.2423 20.9867 26.2529C19.2773 24.9131 18.1652 22.7902 18.1652 20.42Z" fill="#FFBB0B"/>
<path d="M32.9984 20.42C32.9984 24.5215 29.6825 27.84 25.5839 27.84C23.8539 27.84 22.2681 27.2423 21.0117 26.2529C22.7418 24.8926 23.8333 22.7902 23.8333 20.42C23.8333 18.0497 22.7211 15.9474 21.0117 14.587C22.268 13.5977 23.8539 13 25.5839 13C29.6825 13 32.9984 16.339 32.9984 20.42Z" fill="#FF0000"/>
</svg>
