<svg width="40" height="40" viewBox="0 0 40 40" fill="none" xmlns="http://www.w3.org/2000/svg">
<mask id="mask0_4686_161911" style="mask-type:luminance" maskUnits="userSpaceOnUse" x="0" y="5" width="40" height="30">
<rect y="5.71436" width="40" height="28.5714" rx="4" fill="white"/>
</mask>
<g mask="url(#mask0_4686_161911)">
<rect y="5.71436" width="40" height="28.5714" fill="#EE343C"/>
<path fill-rule="evenodd" clip-rule="evenodd" d="M17.9143 12.2014C17.4649 11.752 16.7607 11.6823 16.2319 12.0348L16.196 12.0588C15.3441 12.6267 15.4236 13.9029 16.3393 14.3607L17.443 14.9126C17.8419 15.112 18.0938 15.5197 18.0938 15.9656C18.0938 16.6157 17.5667 17.1428 16.9166 17.1428H16.5038C16.2968 17.1428 16.0926 17.0946 15.9075 17.002L13.2032 15.6499C12.7113 15.4039 12.1172 15.5003 11.7283 15.8892C11.1116 16.5059 11.2803 17.5455 12.0604 17.9356L13.0051 18.4079C13.5751 18.6929 13.6245 19.4873 13.0943 19.8408C12.4791 20.251 12.6668 21.2002 13.3919 21.3452L14.1947 21.5058C14.9654 21.66 15.1908 22.6534 14.5619 23.125L13.8432 23.664C13.3743 24.0157 13.6231 24.7618 14.2092 24.7618C14.259 24.7618 14.3087 24.7557 14.3571 24.7436L16.1596 24.293C16.8431 24.1221 17.3787 24.8821 16.9879 25.4683C16.6464 25.9805 17.0136 26.6666 17.6292 26.6666H18.4628C18.8112 26.6666 19.1205 26.8895 19.2306 27.22C19.4766 27.958 20.5204 27.958 20.7664 27.22C20.8766 26.8895 21.1859 26.6666 21.5343 26.6666H22.3679C22.9835 26.6666 23.3507 25.9805 23.0092 25.4683C22.6184 24.8821 23.154 24.1221 23.8374 24.293L25.64 24.7436C25.6884 24.7557 25.738 24.7618 25.7879 24.7618C26.374 24.7618 26.6227 24.0157 26.1538 23.664L25.4351 23.125C24.8063 22.6534 25.0316 21.66 25.8024 21.5058L26.6052 21.3452C27.3302 21.2002 27.518 20.251 26.9028 19.8408C26.3726 19.4873 26.422 18.6929 26.992 18.4079L27.9367 17.9356C28.7168 17.5455 28.8855 16.5059 28.2688 15.8892C27.8799 15.5003 27.2858 15.4039 26.7939 15.6499L24.0896 17.002C23.9045 17.0946 23.7003 17.1428 23.4933 17.1428H23.0805C22.4304 17.1428 21.9033 16.6157 21.9033 15.9656C21.9033 15.5197 22.1549 15.1122 22.5538 14.9128C22.9015 14.7389 23.2834 14.5479 23.6578 14.3607C24.5735 13.9029 24.653 12.6267 23.8011 12.0588L23.7652 12.0348C23.2363 11.6823 22.5322 11.752 22.0828 12.2014L20.9413 13.3428C20.4206 13.8635 19.5764 13.8635 19.0557 13.3428L17.9143 12.2014Z" fill="#262626"/>
</g>
</svg>
