<svg width="40" height="24" viewBox="0 0 40 24" fill="none" xmlns="http://www.w3.org/2000/svg">
<circle cx="12" cy="12" r="12" fill="#FF0000"/>
<circle cx="28" cy="12" r="12" fill="#FFB800"/>
<path d="M2.41087 9.27273H3.64347L4.94531 12.4489H5.00071L6.30256 9.27273H7.53516V14H6.5657V10.9231H6.52646L5.30309 13.9769H4.64293L3.41957 10.9116H3.38033V14H2.41087V9.27273ZM9.35116 14.0669C9.12496 14.0669 8.92337 14.0277 8.7464 13.9492C8.56944 13.8692 8.42941 13.7515 8.32631 13.5961C8.22474 13.4391 8.17396 13.2437 8.17396 13.0098C8.17396 12.8128 8.21012 12.6474 8.28245 12.5135C8.35477 12.3796 8.45326 12.2719 8.5779 12.1903C8.70255 12.1088 8.84412 12.0472 9.00262 12.0057C9.16266 11.9641 9.33039 11.9349 9.50582 11.918C9.71202 11.8964 9.87821 11.8764 10.0044 11.858C10.1306 11.8379 10.2221 11.8087 10.2791 11.7702C10.336 11.7318 10.3645 11.6748 10.3645 11.5994V11.5856C10.3645 11.4394 10.3183 11.3263 10.226 11.2463C10.1352 11.1663 10.0059 11.1262 9.8382 11.1262C9.66124 11.1262 9.52043 11.1655 9.41579 11.244C9.31115 11.3209 9.24191 11.4179 9.20805 11.5348L8.29861 11.4609C8.34477 11.2455 8.43556 11.0593 8.57098 10.9023C8.7064 10.7438 8.88105 10.6223 9.09495 10.5376C9.31038 10.4515 9.55967 10.4084 9.84282 10.4084C10.0398 10.4084 10.2283 10.4315 10.4083 10.4776C10.5899 10.5238 10.7507 10.5953 10.8908 10.6923C11.0323 10.7892 11.1439 10.9139 11.2255 11.0662C11.307 11.217 11.3478 11.3978 11.3478 11.6087V14H10.4153V13.5083H10.3876C10.3306 13.6191 10.2545 13.7169 10.159 13.8015C10.0636 13.8846 9.949 13.95 9.81512 13.9977C9.68124 14.0439 9.52659 14.0669 9.35116 14.0669ZM9.63277 13.3883C9.77742 13.3883 9.90514 13.3598 10.0159 13.3029C10.1267 13.2444 10.2137 13.166 10.2768 13.0675C10.3399 12.969 10.3714 12.8574 10.3714 12.7328V12.3565C10.3406 12.3765 10.2983 12.395 10.2445 12.4119C10.1921 12.4273 10.1329 12.4419 10.0667 12.4558C10.0005 12.4681 9.93438 12.4796 9.86821 12.4904C9.80204 12.4996 9.74202 12.5081 9.68817 12.5158C9.57275 12.5327 9.47196 12.5597 9.38579 12.5966C9.29961 12.6335 9.23267 12.6835 9.18497 12.7466C9.13727 12.8082 9.11341 12.8851 9.11341 12.9775C9.11341 13.1113 9.16189 13.2137 9.25883 13.2844C9.35732 13.3537 9.48196 13.3883 9.63277 13.3883ZM15.0606 11.4656L14.1604 11.521C14.145 11.444 14.1119 11.3748 14.0611 11.3132C14.0103 11.2501 13.9434 11.2001 13.8603 11.1632C13.7787 11.1247 13.681 11.1055 13.5672 11.1055C13.4148 11.1055 13.2863 11.1378 13.1817 11.2024C13.077 11.2655 13.0247 11.3501 13.0247 11.4563C13.0247 11.541 13.0586 11.6125 13.1263 11.671C13.194 11.7295 13.3102 11.7764 13.4748 11.8118L14.1165 11.9411C14.4612 12.0118 14.7182 12.1257 14.8875 12.2827C15.0567 12.4396 15.1414 12.6458 15.1414 12.9013C15.1414 13.1336 15.0729 13.3375 14.9359 13.513C14.8005 13.6884 14.6143 13.8253 14.3774 13.9238C14.1419 14.0208 13.8703 14.0692 13.5625 14.0692C13.0932 14.0692 12.7193 13.9715 12.4407 13.7761C12.1638 13.5791 12.0014 13.3114 11.9537 12.9728L12.9209 12.9221C12.9501 13.0652 13.0209 13.1744 13.1332 13.2498C13.2455 13.3237 13.3894 13.3606 13.5649 13.3606C13.7372 13.3606 13.8757 13.3275 13.9803 13.2614C14.0865 13.1937 14.1404 13.1067 14.1419 13.0005C14.1404 12.9113 14.1027 12.8382 14.0288 12.7812C13.9549 12.7228 13.8411 12.6781 13.6872 12.6474L13.0732 12.525C12.727 12.4558 12.4692 12.3358 12.2999 12.165C12.1322 11.9941 12.0483 11.7764 12.0483 11.5117C12.0483 11.284 12.1099 11.0878 12.233 10.9231C12.3576 10.7585 12.5323 10.6315 12.757 10.5423C12.9832 10.453 13.2479 10.4084 13.551 10.4084C13.9988 10.4084 14.3512 10.503 14.6082 10.6923C14.8667 10.8816 15.0175 11.1393 15.0606 11.4656ZM17.6464 10.4545V11.1932H15.5113V10.4545H17.6464ZM15.996 9.60511H16.9793V12.9105C16.9793 13.0013 16.9932 13.0721 17.0209 13.1229C17.0486 13.1721 17.087 13.2067 17.1363 13.2267C17.1871 13.2467 17.2455 13.2567 17.3117 13.2567C17.3579 13.2567 17.404 13.2529 17.4502 13.2452C17.4964 13.236 17.5318 13.229 17.5564 13.2244L17.711 13.9561C17.6618 13.9715 17.5925 13.9892 17.5033 14.0092C17.414 14.0308 17.3055 14.0439 17.1778 14.0485C16.9408 14.0577 16.7331 14.0262 16.5546 13.9538C16.3776 13.8815 16.2399 13.7692 16.1414 13.6168C16.0429 13.4645 15.9945 13.2721 15.996 13.0398V9.60511ZM19.8646 14.0692C19.4999 14.0692 19.186 13.9954 18.9229 13.8477C18.6613 13.6984 18.4597 13.4876 18.3181 13.2152C18.1765 12.9413 18.1057 12.6174 18.1057 12.2434C18.1057 11.8787 18.1765 11.5587 18.3181 11.2832C18.4597 11.0078 18.6589 10.7931 18.9159 10.6392C19.1744 10.4853 19.4776 10.4084 19.8254 10.4084C20.0593 10.4084 20.277 10.4461 20.4786 10.5215C20.6817 10.5953 20.8587 10.7069 21.0095 10.8562C21.1618 11.0054 21.2803 11.1932 21.365 11.4194C21.4496 11.6441 21.4919 11.9072 21.4919 12.2088V12.4789H18.4981V11.8695H20.5663C20.5663 11.7279 20.5355 11.6025 20.474 11.4933C20.4124 11.384 20.327 11.2986 20.2178 11.237C20.1101 11.1739 19.9846 11.1424 19.8415 11.1424C19.6923 11.1424 19.5599 11.177 19.4445 11.2463C19.3306 11.314 19.2414 11.4055 19.1768 11.521C19.1121 11.6348 19.079 11.7618 19.0775 11.9018V12.4812C19.0775 12.6566 19.1098 12.8082 19.1744 12.9359C19.2406 13.0636 19.3337 13.1621 19.4537 13.2314C19.5738 13.3006 19.7161 13.3352 19.8808 13.3352C19.99 13.3352 20.0901 13.3198 20.1808 13.2891C20.2716 13.2583 20.3493 13.2121 20.414 13.1506C20.4786 13.089 20.5278 13.0136 20.5617 12.9244L21.4711 12.9844C21.425 13.2029 21.3303 13.3937 21.1872 13.5568C21.0457 13.7184 20.8625 13.8446 20.6379 13.9354C20.4147 14.0246 20.157 14.0692 19.8646 14.0692ZM22.1336 14V10.4545H23.0869V11.0732H23.1238C23.1885 10.8531 23.297 10.6869 23.4493 10.5746C23.6017 10.4607 23.7771 10.4038 23.9756 10.4038C24.0248 10.4038 24.0779 10.4068 24.1349 10.413C24.1918 10.4192 24.2418 10.4276 24.2849 10.4384V11.3109C24.2387 11.2971 24.1749 11.2847 24.0933 11.274C24.0117 11.2632 23.9371 11.2578 23.8694 11.2578C23.7248 11.2578 23.5955 11.2894 23.4816 11.3525C23.3693 11.414 23.28 11.5002 23.2139 11.611C23.1492 11.7218 23.1169 11.8495 23.1169 11.9941V14H22.1336ZM26.2302 14.0692C25.867 14.0692 25.5546 13.9923 25.293 13.8384C25.033 13.683 24.8329 13.4676 24.6929 13.1921C24.5544 12.9167 24.4851 12.5997 24.4851 12.2411C24.4851 11.878 24.5551 11.5594 24.6952 11.2855C24.8368 11.0101 25.0376 10.7954 25.2976 10.6415C25.5577 10.4861 25.867 10.4084 26.2255 10.4084C26.5348 10.4084 26.8057 10.4645 27.038 10.5769C27.2704 10.6892 27.4543 10.8469 27.5897 11.0501C27.7251 11.2532 27.7998 11.4917 27.8136 11.7656H26.8857C26.8595 11.5887 26.7903 11.4463 26.678 11.3386C26.5672 11.2293 26.4217 11.1747 26.2417 11.1747C26.0894 11.1747 25.9562 11.2163 25.8424 11.2994C25.73 11.3809 25.6423 11.5002 25.5792 11.6571C25.5161 11.8141 25.4846 12.0041 25.4846 12.2273C25.4846 12.4535 25.5154 12.6458 25.5769 12.8043C25.64 12.9628 25.7285 13.0836 25.8424 13.1667C25.9562 13.2498 26.0894 13.2914 26.2417 13.2914C26.354 13.2914 26.4548 13.2683 26.5441 13.2221C26.6349 13.176 26.7095 13.109 26.768 13.0213C26.828 12.9321 26.8672 12.8251 26.8857 12.7005H27.8136C27.7982 12.9713 27.7244 13.2098 27.592 13.416C27.4612 13.6207 27.2804 13.7807 27.0496 13.8961C26.8188 14.0115 26.5456 14.0692 26.2302 14.0692ZM29.4542 14.0669C29.228 14.0669 29.0264 14.0277 28.8494 13.9492C28.6725 13.8692 28.5324 13.7515 28.4293 13.5961C28.3278 13.4391 28.277 13.2437 28.277 13.0098C28.277 12.8128 28.3132 12.6474 28.3855 12.5135C28.4578 12.3796 28.5563 12.2719 28.6809 12.1903C28.8056 12.1088 28.9471 12.0472 29.1056 12.0057C29.2657 11.9641 29.4334 11.9349 29.6088 11.918C29.815 11.8964 29.9812 11.8764 30.1074 11.858C30.2336 11.8379 30.3252 11.8087 30.3821 11.7702C30.439 11.7318 30.4675 11.6748 30.4675 11.5994V11.5856C30.4675 11.4394 30.4213 11.3263 30.329 11.2463C30.2382 11.1663 30.109 11.1262 29.9412 11.1262C29.7643 11.1262 29.6235 11.1655 29.5188 11.244C29.4142 11.3209 29.3449 11.4179 29.3111 11.5348L28.4016 11.4609C28.4478 11.2455 28.5386 11.0593 28.674 10.9023C28.8094 10.7438 28.9841 10.6223 29.198 10.5376C29.4134 10.4515 29.6627 10.4084 29.9458 10.4084C30.1428 10.4084 30.3313 10.4315 30.5114 10.4776C30.6929 10.5238 30.8538 10.5953 30.9938 10.6923C31.1354 10.7892 31.2469 10.9139 31.3285 11.0662C31.41 11.217 31.4508 11.3978 31.4508 11.6087V14H30.5183V13.5083H30.4906C30.4337 13.6191 30.3575 13.7169 30.2621 13.8015C30.1667 13.8846 30.052 13.95 29.9181 13.9977C29.7843 14.0439 29.6296 14.0669 29.4542 14.0669ZM29.7358 13.3883C29.8804 13.3883 30.0082 13.3598 30.119 13.3029C30.2298 13.2444 30.3167 13.166 30.3798 13.0675C30.4429 12.969 30.4744 12.8574 30.4744 12.7328V12.3565C30.4437 12.3765 30.4013 12.395 30.3475 12.4119C30.2952 12.4273 30.2359 12.4419 30.1697 12.4558C30.1036 12.4681 30.0374 12.4796 29.9712 12.4904C29.9051 12.4996 29.8451 12.5081 29.7912 12.5158C29.6758 12.5327 29.575 12.5597 29.4888 12.5966C29.4026 12.6335 29.3357 12.6835 29.288 12.7466C29.2403 12.8082 29.2164 12.8851 29.2164 12.9775C29.2164 13.1113 29.2649 13.2137 29.3619 13.2844C29.4603 13.3537 29.585 13.3883 29.7358 13.3883ZM32.2137 14V10.4545H33.167V11.0732H33.2039C33.2686 10.8531 33.377 10.6869 33.5294 10.5746C33.6817 10.4607 33.8572 10.4038 34.0557 10.4038C34.1049 10.4038 34.158 10.4068 34.2149 10.413C34.2719 10.4192 34.3219 10.4276 34.365 10.4384V11.3109C34.3188 11.2971 34.2549 11.2847 34.1734 11.274C34.0918 11.2632 34.0172 11.2578 33.9495 11.2578C33.8048 11.2578 33.6756 11.2894 33.5617 11.3525C33.4494 11.414 33.3601 11.5002 33.2939 11.611C33.2293 11.7218 33.197 11.8495 33.197 11.9941V14H32.2137ZM36.0148 14.0577C35.7455 14.0577 35.5016 13.9885 35.2831 13.85C35.0661 13.7099 34.8937 13.5045 34.766 13.2337C34.6398 12.9613 34.5767 12.6274 34.5767 12.2319C34.5767 11.8256 34.6421 11.4879 34.7729 11.2186C34.9037 10.9477 35.0776 10.7454 35.2946 10.6115C35.5131 10.4761 35.7524 10.4084 36.0125 10.4084C36.211 10.4084 36.3764 10.4422 36.5087 10.5099C36.6426 10.5761 36.7503 10.6592 36.8319 10.7592C36.915 10.8577 36.9781 10.9547 37.0212 11.0501H37.0512V9.27273H38.0322V14H37.0627V13.4322H37.0212C36.975 13.5307 36.9096 13.6284 36.825 13.7253C36.7419 13.8207 36.6334 13.9 36.4995 13.9631C36.3672 14.0262 36.2056 14.0577 36.0148 14.0577ZM36.3264 13.2752C36.4849 13.2752 36.6188 13.2321 36.728 13.146C36.8388 13.0582 36.9235 12.9359 36.9819 12.7789C37.0419 12.622 37.072 12.4381 37.072 12.2273C37.072 12.0165 37.0427 11.8333 36.9842 11.6779C36.9258 11.5225 36.8411 11.4025 36.7303 11.3178C36.6195 11.2332 36.4849 11.1909 36.3264 11.1909C36.1648 11.1909 36.0286 11.2347 35.9178 11.3224C35.807 11.4102 35.7232 11.5317 35.6662 11.6871C35.6093 11.8426 35.5808 12.0226 35.5808 12.2273C35.5808 12.4335 35.6093 12.6158 35.6662 12.7743C35.7247 12.9313 35.8086 13.0544 35.9178 13.1436C36.0286 13.2314 36.1648 13.2752 36.3264 13.2752Z" fill="white"/>
</svg>
